ffmpeg started on 2016-12-05 at 10:56:45
Report written to "Output/x264/results/ffmpeg/sintelfaster1000k.log"
Command line:
Tools/ffmpeg/ffmpeg -benchmark -y -i Input/y4m/sintel.y4m -c:v libx264 -preset faster -b:v 1000k -an Output/x264/encoded/sintelfaster1000k.mkv
ffmpeg version N-82227-gdb23fde Copyright (c) 2000-2016 the FFmpeg developers
  built with gcc 5.4.0 (Ubuntu 5.4.0-6ubuntu1~16.04.2) 20160609
  configuration: --prefix=/home/jaroslav/ffmpeg_build --pkg-config-flags=--static --extra-cflags=-I/home/jaroslav/ffmpeg_build/include --extra-ldflags=-L/home/jaroslav/ffmpeg_build/lib --bindir=/home/jaroslav/bin --enable-gpl --enable-libass --enable-libfdk-aac --enable-libfreetype --enable-libmp3lame --enable-libopus --enable-libtheora --enable-libvorbis --enable-libvpx --enable-libx264 --enable-libx265 --enable-nvenc --enable-libmfx --enable-libxvid --enable-libgsm --enable-libopencore-amrnb --enable-version3 --enable-nonfree
  libavutil      55. 35.100 / 55. 35.100
  libavcodec     57. 66.101 / 57. 66.101
  libavformat    57. 57.100 / 57. 57.100
  libavdevice    57.  2.100 / 57.  2.100
  libavfilter     6. 66.100 /  6. 66.100
  libswscale      4.  3.100 /  4.  3.100
  libswresample   2.  4.100 /  2.  4.100
  libpostproc    54.  2.100 / 54.  2.100
Input #0, yuv4mpegpipe, from 'Input/y4m/sintel.y4m':
  Duration: 00:00:20.83, start: 0.000000, bitrate: 2057307 kb/s
    Stream #0:0: Video: rawvideo (I420 / 0x30323449), yuv420p(progressive), 4096x1744, SAR 1:1 DAR 256:109, 24 fps, 24 tbr, 24 tbn, 24 tbc
[libx264 @ 0x2e0b1c0] using SAR=1/1
[libx264 @ 0x2e0b1c0] using cpu capabilities: MMX2 SSE2Fast SSSE3 SSE4.2 AVX FMA3 AVX2 LZCNT BMI2
[libx264 @ 0x2e0b1c0] profile High, level 5.1
[libx264 @ 0x2e0b1c0] 264 - core 148 - H.264/MPEG-4 AVC codec - Copyleft 2003-2016 - http://www.videolan.org/x264.html - options: cabac=1 ref=2 deblock=1:0:0 analyse=0x3:0x113 me=hex subme=4 psy=1 psy_rd=1.00:0.00 mixed_ref=0 me_range=16 chroma_me=1 trellis=1 8x8dct=1 cqm=0 deadzone=21,11 fast_pskip=1 chroma_qp_offset=0 threads=6 lookahead_threads=1 sliced_threads=0 nr=0 decimate=1 interlaced=0 bluray_compat=0 constrained_intra=0 bframes=3 b_pyramid=2 b_adapt=1 b_bias=0 direct=1 weightb=1 open_gop=0 weightp=1 keyint=250 keyint_min=24 scenecut=40 intra_refresh=0 rc_lookahead=20 rc=abr mbtree=1 bitrate=1000 ratetol=1.0 qcomp=0.60 qpmin=0 qpmax=69 qpstep=4 ip_ratio=1.40 aq=1:1.00
Output #0, matroska, to 'Output/x264/encoded/sintelfaster1000k.mkv':
  Metadata:
    encoder         : Lavf57.57.100
    Stream #0:0: Video: h264 (libx264) (H264 / 0x34363248), yuv420p, 4096x1744 [SAR 1:1 DAR 256:109], q=-1--1, 1000 kb/s, 24 fps, 1k tbn, 24 tbc
    Metadata:
      encoder         : Lavc57.66.101 libx264
    Side data:
      cpb: bitrate max/min/avg: 0/0/1000000 buffer size: 0 vbv_delay: -1
Stream mapping:
  Stream #0:0 -> #0:0 (rawvideo (native) -> h264 (libx264))
Press [q] to stop, [?] for help
frame=   11 fps=0.0 q=0.0 size=       0kB time=00:00:00.00 bitrate=N/A speed=   0x    frame=   20 fps= 19 q=0.0 size=       0kB time=00:00:00.00 bitrate=N/A speed=   0x    frame=   27 fps= 11 q=0.0 size=       0kB time=00:00:00.00 bitrate=N/A speed=   0x    frame=   32 fps= 11 q=44.0 size=       1kB time=-00:00:00.04 bitrate=N/A speed=N/A    frame=   38 fps= 11 q=61.0 size=       1kB time=00:00:00.20 bitrate=  28.1kbits/s speed=0.0596x    frame=   44 fps=5.8 q=64.0 size=       1kB time=00:00:00.45 bitrate=  12.8kbits/s speed=0.0603x    frame=   45 fps=3.9 q=63.0 size=       1kB time=00:00:00.50 bitrate=  11.7kbits/s speed=0.0439x    frame=   46 fps=3.8 q=66.0 size=       1kB time=00:00:00.54 bitrate=  10.8kbits/s speed=0.0444x    frame=   54 fps=4.2 q=69.0 size=       1kB time=00:00:00.87 bitrate=   6.7kbits/s speed=0.0687x    frame=   62 fps=4.7 q=69.0 size=       1kB time=00:00:01.20 bitrate=   4.9kbits/s speed=0.0908x    frame=   70 fps=5.0 q=69.0 size=       1kB time=00:00:01.54 bitrate=   3.8kbits/s speed=0.111x    frame=   78 fps=5.4 q=69.0 size=       1kB time=00:00:01.87 bitrate=   3.1kbits/s speed=0.13x    frame=   86 fps=5.8 q=69.0 size=       1kB time=00:00:02.20 bitrate=   2.7kbits/s speed=0.148x    frame=   94 fps=6.1 q=69.0 size=       1kB time=00:00:02.54 bitrate=   2.3kbits/s speed=0.164x    frame=  102 fps=6.4 q=69.0 size=       1kB time=00:00:02.87 bitrate=   2.0kbits/s speed=0.179x    frame=  110 fps=6.6 q=69.0 size=       1kB time=00:00:03.20 bitrate=   1.8kbits/s speed=0.193x    frame=  117 fps=6.8 q=69.0 size=       1kB time=00:00:03.50 bitrate=   1.7kbits/s speed=0.204x    frame=  125 fps=7.0 q=69.0 size=       1kB time=00:00:03.83 bitrate=   1.5kbits/s speed=0.216x    frame=  132 fps=7.2 q=69.0 size=     785kB time=00:00:04.12 bitrate=1557.9kbits/s speed=0.226x    frame=  140 fps=7.4 q=69.0 size=     785kB time=00:00:04.45 bitrate=1441.5kbits/s speed=0.237x    frame=  149 fps=7.7 q=69.0 size=     785kB time=00:00:04.83 bitrate=1329.7kbits/s speed=0.25x    frame=  157 fps=7.9 q=69.0 size=     785kB time=00:00:05.16 bitrate=1243.8kbits/s speed=0.26x    frame=  164 fps=8.0 q=69.0 size=     785kB time=00:00:05.45 bitrate=1177.5kbits/s speed=0.268x    frame=  172 fps=8.2 q=69.0 size=     785kB time=00:00:05.79 bitrate=1109.6kbits/s speed=0.277x    frame=  181 fps=8.4 q=69.0 size=     785kB time=00:00:06.16 bitrate=1042.1kbits/s speed=0.285x    frame=  191 fps=8.6 q=69.0 size=    1175kB time=00:00:06.58 bitrate=1461.6kbits/s speed=0.296x    frame=  199 fps=8.8 q=69.0 size=    1175kB time=00:00:06.91 bitrate=1391.0kbits/s speed=0.305x    frame=  207 fps=8.9 q=69.0 size=    1175kB time=00:00:07.25 bitrate=1327.2kbits/s speed=0.311x    frame=  214 fps=9.0 q=69.0 size=    1322kB time=00:00:07.54 bitrate=1436.0kbits/s speed=0.317x    frame=  220 fps=9.0 q=69.0 size=    1322kB time=00:00:07.79 bitrate=1389.9kbits/s speed=0.321x    frame=  227 fps=9.1 q=69.0 size=    1322kB time=00:00:08.08 bitrate=1339.9kbits/s speed=0.326x    frame=  236 fps=9.3 q=69.0 size=    1322kB time=00:00:08.45 bitrate=1280.5kbits/s speed=0.333x    frame=  246 fps=9.5 q=69.0 size=    1322kB time=00:00:08.87 bitrate=1220.3kbits/s speed=0.341x    frame=  254 fps=9.6 q=69.0 size=    1322kB time=00:00:09.20 bitrate=1176.2kbits/s speed=0.347x    frame=  263 fps=9.7 q=69.0 size=    1322kB time=00:00:09.58 bitrate=1130.2kbits/s speed=0.354x    frame=  271 fps=9.8 q=69.0 size=    1322kB time=00:00:09.91 bitrate=1092.1kbits/s speed=0.358x    frame=  280 fps=9.9 q=69.0 size=    1322kB time=00:00:10.29 bitrate=1052.3kbits/s speed=0.365x    frame=  289 fps= 10 q=69.0 size=    1322kB time=00:00:10.66 bitrate=1015.3kbits/s speed=0.37x    frame=  297 fps= 10 q=69.0 size=    1602kB time=00:00:11.00 bitrate=1193.0kbits/s speed=0.373x    frame=  308 fps= 10 q=69.0 size=    1602kB time=00:00:11.45 bitrate=1145.3kbits/s speed=0.382x    frame=  317 fps= 10 q=69.0 size=    1602kB time=00:00:11.83 bitrate=1109.0kbits/s speed=0.387x    frame=  329 fps= 11 q=69.0 size=    1602kB time=00:00:12.33 bitrate=1064.0kbits/s speed=0.396x    frame=  341 fps= 11 q=69.0 size=    1602kB time=00:00:12.83 bitrate=1022.6kbits/s speed=0.404x    frame=  353 fps= 11 q=69.0 size=    1602kB time=00:00:13.33 bitrate= 984.2kbits/s speed=0.412x    frame=  362 fps= 11 q=68.0 size=    1602kB time=00:00:13.70 bitrate= 957.3kbits/s speed=0.417x    frame=  373 fps= 11 q=68.0 size=    1602kB time=00:00:14.16 bitrate= 926.3kbits/s speed=0.423x    frame=  383 fps= 11 q=67.0 size=    1602kB time=00:00:14.58 bitrate= 899.9kbits/s speed=0.429x    frame=  391 fps= 11 q=66.0 size=    1602kB time=00:00:14.91 bitrate= 879.7kbits/s speed=0.432x    frame=  401 fps= 11 q=66.0 size=    1775kB time=00:00:15.33 bitrate= 948.0kbits/s speed=0.436x    frame=  409 fps= 11 q=66.0 size=    1775kB time=00:00:15.66 bitrate= 927.8kbits/s speed=0.439x    frame=  420 fps= 12 q=65.0 size=    1775kB time=00:00:16.12 bitrate= 901.5kbits/s speed=0.444x    frame=  430 fps= 12 q=65.0 size=    1775kB time=00:00:16.54 bitrate= 878.7kbits/s speed=0.448x    frame=  440 fps= 12 q=65.0 size=    1775kB time=00:00:16.95 bitrate= 857.2kbits/s speed=0.452x    frame=  452 fps= 12 q=65.0 size=    1945kB time=00:00:17.45 bitrate= 912.7kbits/s speed=0.459x    frame=  461 fps= 12 q=65.0 size=    1945kB time=00:00:17.83 bitrate= 893.5kbits/s speed=0.461x    frame=  470 fps= 12 q=65.0 size=    1945kB time=00:00:18.20 bitrate= 875.1kbits/s speed=0.464x    frame=  480 fps= 12 q=64.0 size=    1945kB time=00:00:18.62 bitrate= 855.5kbits/s speed=0.469x    frame=  489 fps= 12 q=64.0 size=    1945kB time=00:00:19.00 bitrate= 838.6kbits/s speed=0.472x    frame=  500 fps= 12 q=64.0 size=    1945kB time=00:00:19.45 bitrate= 818.9kbits/s speed=0.476x    frame=  500 fps= 12 q=-1.0 Lsize=    2204kB time=00:00:20.70 bitrate= 872.0kbits/s speed=0.498x    
video:2200kB audio:0kB subtitle:0kB other streams:0kB global headers:0kB muxing overhead: 0.201227%
bench: utime=81.452s
bench: maxrss=1113540kB
[libx264 @ 0x2e0b1c0] frame I:8     Avg QP:48.99  size:  9860
[libx264 @ 0x2e0b1c0] frame P:269   Avg QP:50.92  size:  6111
[libx264 @ 0x2e0b1c0] frame B:223   Avg QP:50.72  size:  2373
[libx264 @ 0x2e0b1c0] consecutive B-frames: 37.0%  8.4%  6.6% 48.0%
[libx264 @ 0x2e0b1c0] mb I  I16..4: 65.2% 34.8%  0.0%
[libx264 @ 0x2e0b1c0] mb P  I16..4:  6.8%  2.2%  0.0%  P16..4: 10.1%  1.1%  0.2%  0.0%  0.0%    skip:79.6%
[libx264 @ 0x2e0b1c0] mb B  I16..4:  0.5%  0.4%  0.0%  B16..8:  5.0%  0.0%  0.0%  direct: 0.4%  skip:93.8%  L0:48.6% L1:51.0% BI: 0.4%
[libx264 @ 0x2e0b1c0] final ratefactor: 60.47
[libx264 @ 0x2e0b1c0] 8x8 transform intra:27.6% inter:97.9%
[libx264 @ 0x2e0b1c0] coded y,uvDC,uvAC intra: 1.6% 3.5% 0.0% inter: 0.1% 0.1% 0.0%
[libx264 @ 0x2e0b1c0] i16 v,h,dc,p: 84% 12%  3%  1%
[libx264 @ 0x2e0b1c0] i8 v,h,dc,ddl,ddr,vr,hd,vl,hu:  8% 11% 76%  1%  0%  0%  1%  0%  2%
[libx264 @ 0x2e0b1c0] i4 v,h,dc,ddl,ddr,vr,hd,vl,hu: 29%  8% 38%  8%  2%  1%  1%  6%  6%
[libx264 @ 0x2e0b1c0] i8c dc,h,v,p: 99%  0%  0%  0%
[libx264 @ 0x2e0b1c0] Weighted P-Frames: Y:0.7% UV:0.0%
[libx264 @ 0x2e0b1c0] ref P L0: 49.2% 50.8%
[libx264 @ 0x2e0b1c0] ref B L0: 69.1% 30.9%
[libx264 @ 0x2e0b1c0] ref B L1: 87.3% 12.7%
[libx264 @ 0x2e0b1c0] kb/s:864.76
